<?xml version="1.0" encoding="utf-8"?>
<!-- Generator: Adobe Illustrator 26.0.2, SVG Export Plug-In . SVG Version: 6.00 Build 0)  -->
<svg version="1.1" id="Layer_1" xmlns="http://www.w3.org/2000/svg" xmlns:xlink="http://www.w3.org/1999/xlink" x="0px" y="0px"
	 viewBox="0 0 24 24" style="enable-background:new 0 0 24 24;" xml:space="preserve">
<style type="text/css">
	.st0{fill:#F9ECAF;}
	.st1{fill:#EDDD98;}
	.st2{fill:#F96E86;}
</style>
<g id="info">
</g>
<g>
	<g>
		<path class="st0" d="M19.2,7.6c-0.4,0-0.8,0.1-1.2,0.2c-0.4-2.8-2.8-5-5.8-5C9.3,2.8,6.8,5,6.5,7.8C6.1,7.7,5.7,7.6,5.3,7.6
			c-2.2,0-3.9,1.8-3.9,4c0,2.2,1.8,3.9,4,3.9c0.2,0,0.4,0,0.5,0L6.5,20l11.5-0.1l0.6-4.5c0.2,0,0.4,0,0.5,0c2.2,0,3.9-1.8,3.9-4
			C23.1,9.3,21.4,7.6,19.2,7.6z"/>
	</g>
	<g>
		<g>
			<path class="st1" d="M12,18.6c0,0,0.7-2.9,0-2.9C11.3,15.7,12,18.6,12,18.6z"/>
		</g>
		<g>
			<path class="st1" d="M13.3,18.9c0,0,2.4-1.8,1.9-2.3C14.6,16.2,13.3,18.9,13.3,18.9z"/>
		</g>
		<g>
			<path class="st1" d="M10.9,18.9c0,0-2.4-1.8-1.8-2.3C9.6,16.2,10.9,18.9,10.9,18.9z"/>
		</g>
	</g>
	<g>
		<g>
			<path class="st2" d="M6.8,21.2c3.6,0,7.3,0,10.9,0c1,0,1-1.5,0-1.5c-3.6,0-7.3,0-10.9,0C5.9,19.7,5.9,21.2,6.8,21.2L6.8,21.2z"/>
		</g>
	</g>
</g>
</svg>
