<?xml version="1.0" encoding="utf-8"?>
<!-- Generator: Adobe Illustrator 26.0.2, SVG Export Plug-In . SVG Version: 6.00 Build 0)  -->
<svg version="1.1" id="Layer_1" xmlns="http://www.w3.org/2000/svg" xmlns:xlink="http://www.w3.org/1999/xlink" x="0px" y="0px"
	 viewBox="0 0 174 174" style="enable-background:new 0 0 174 174;" xml:space="preserve">
<style type="text/css">
	.st0{fill:#F9ECAF;}
	.st1{fill:#EDDD98;}
	.st2{fill:#F96E86;}
</style>
<g>
	<g>
		<path class="st0" d="M126.6,57.9c-2.3,0-4.5,0.4-6.6,1.1c-2-15.3-15.1-27-30.8-26.9c-15.8,0.1-28.7,12-30.5,27.3
			c-2.1-0.7-4.3-1-6.6-1c-11.7,0.1-21.1,9.6-21,21.3c0.1,11.7,9.6,21.1,21.3,21c1,0,2-0.1,2.9-0.2l3.5,24.1l61.9-0.4l3.2-24.1
			c1,0.1,1.9,0.2,2.9,0.2c11.7-0.1,21.1-9.6,21-21.3C147.8,67.2,138.3,57.8,126.6,57.9z"/>
	</g>
	<g>
		<g>
			<path class="st1" d="M88.3,117.2c0,0,3.8-15.7,0-15.7C84.6,101.5,88.3,117.2,88.3,117.2z"/>
		</g>
		<g>
			<path class="st1" d="M94.9,118.7c0,0,12.9-9.8,9.9-12.2C101.9,104.2,94.9,118.7,94.9,118.7z"/>
		</g>
		<g>
			<path class="st1" d="M82.1,118.7c0,0-12.8-9.8-9.9-12.2C75.1,104.1,82.1,118.7,82.1,118.7z"/>
		</g>
	</g>
	<g>
		<g>
			<path class="st2" d="M60.4,131.2c19.5,0,39,0.1,58.5,0.1c5.2,0,5.2-8.1,0-8.1c-19.5,0-39-0.1-58.5-0.1
				C55.2,123.1,55.2,131.2,60.4,131.2L60.4,131.2z"/>
		</g>
	</g>
	<g>
		<path class="st2" d="M87,160.1c-40.3,0-73.1-32.8-73.1-73.1S46.7,13.9,87,13.9s73.1,32.8,73.1,73.1S127.3,160.1,87,160.1z
			 M87,18.5c-37.8,0-68.5,30.7-68.5,68.5s30.7,68.5,68.5,68.5s68.5-30.7,68.5-68.5S124.8,18.5,87,18.5z"/>
	</g>
	<g>
		<path class="st2" d="M87,167.5c-44.4,0-80.5-36.1-80.5-80.5S42.6,6.5,87,6.5s80.5,36.1,80.5,80.5S131.4,167.5,87,167.5z M87,9.3
			C44.1,9.3,9.3,44.1,9.3,87s34.9,77.7,77.7,77.7s77.7-34.9,77.7-77.7S129.9,9.3,87,9.3z"/>
	</g>
</g>
</svg>
