<?xml version="1.0" encoding="utf-8"?>
<!-- Generator: Adobe Illustrator 26.0.2, SVG Export Plug-In . SVG Version: 6.00 Build 0)  -->
<svg version="1.1" id="Layer_1" xmlns="http://www.w3.org/2000/svg" xmlns:xlink="http://www.w3.org/1999/xlink" x="0px" y="0px"
	 viewBox="0 0 243.4 56" style="enable-background:new 0 0 243.4 56;" xml:space="preserve">
<style type="text/css">
	.st0{fill:#F9ECAF;}
	.st1{fill:#EDDD98;}
	.st2{fill:#F96E86;}
</style>
<g>
	<g>
		<g>
			<path class="st0" d="M184.4,26.8c-0.6,0-1.2,0.1-1.8,0.3c-0.5-4.2-4.1-7.4-8.5-7.4c-4.3,0-7.9,3.3-8.4,7.5
				c-0.6-0.2-1.2-0.3-1.8-0.3c-3.2,0-5.8,2.6-5.8,5.9c0,3.2,2.6,5.8,5.9,5.8c0.3,0,0.5,0,0.8-0.1l1,6.6l17-0.1l0.9-6.6
				c0.3,0,0.5,0.1,0.8,0.1c3.2,0,5.8-2.6,5.8-5.9C190.2,29.4,187.6,26.8,184.4,26.8z"/>
			<g>
				<path class="st1" d="M174,42.2c0,0,1.5-6.1,0-6.1C172.6,36.1,174,42.2,174,42.2z"/>
				<path class="st1" d="M176.6,42.8c0,0,5-3.8,3.9-4.7C179.3,37.1,176.6,42.8,176.6,42.8z"/>
				<path class="st1" d="M171.6,42.8c0,0-5-3.8-3.9-4.8C168.9,37.1,171.6,42.8,171.6,42.8z"/>
			</g>
		</g>
		<g>
			<path class="st2" d="M166.2,47c5.4,0,10.7,0,16.1,0c1.4,0,1.4-2.2,0-2.2c-5.4,0-10.7,0-16.1,0C164.8,44.8,164.8,47,166.2,47
				L166.2,47z"/>
		</g>
	</g>
	<path class="st2" d="M73.1,18.3c-0.2,0.8-0.4,1.7-0.6,2.8c-1,0-2.6-0.1-4.9-0.1c-3.1,0-5.5,0-7.1,0.1l0.1-0.4
		c0.5,0,0.9-0.1,1.2-0.2s0.5-0.3,0.6-0.5c0.2-0.2,0.3-0.6,0.5-1.2l2.9-10.7c0.1-0.5,0.2-0.8,0.2-1c0-0.3-0.1-0.5-0.3-0.6
		c-0.2-0.1-0.6-0.2-1.1-0.2l0.1-0.4c0.8,0,2,0.1,3.6,0.1c1.4,0,2.5,0,3.4-0.1l-0.1,0.4c-0.5,0-0.9,0.1-1.2,0.2
		c-0.3,0.1-0.5,0.3-0.6,0.5c-0.2,0.2-0.3,0.6-0.5,1.2l-2.9,10.7c-0.1,0.5-0.2,0.9-0.2,1.1c0,0.3,0.1,0.5,0.3,0.6
		c0.2,0.1,0.6,0.1,1.1,0.1h0.9c1,0,1.9-0.3,2.7-0.9c0.8-0.6,1.5-1.7,2-3.1h0.5C73.5,16.9,73.3,17.5,73.1,18.3z"/>
	<path class="st2" d="M76.9,20.1c-1.1-0.9-1.7-2.2-1.7-3.9c0-1.3,0.4-2.6,1.2-4c0.8-1.3,1.9-2.4,3.4-3.3c1.4-0.9,3-1.3,4.8-1.3
		c1.9,0,3.3,0.4,4.4,1.3c1.1,0.9,1.7,2.2,1.7,3.9c0,1.3-0.4,2.6-1.2,4c-0.8,1.3-1.9,2.4-3.4,3.3c-1.4,0.9-3,1.3-4.8,1.3
		S78,20.9,76.9,20.1z M81.7,9.2c-0.8,0.8-1.5,1.9-2,3.2c-0.5,1.3-0.7,2.6-0.7,4c0,1.6,0.2,2.7,0.7,3.4c0.5,0.7,1.1,1.1,1.9,1.1
		c1,0,1.9-0.4,2.8-1.2c0.8-0.8,1.5-1.9,2-3.2c0.5-1.3,0.7-2.6,0.7-4c0-1.6-0.2-2.7-0.7-3.4C85.9,8.4,85.3,8,84.5,8
		C83.4,8,82.5,8.4,81.7,9.2z"/>
	<path class="st2" d="M103.3,12.2h-0.4c0.1-0.4,0.1-0.8,0.1-1.2c0-0.8-0.3-1.5-0.9-2.1s-1.4-0.8-2.4-0.8c-0.8,0-1.4,0.2-1.9,0.5
		C97.3,9,97.1,9.4,97.1,10s0.2,1.1,0.6,1.6s1.1,1.1,2.1,1.9c0.8,0.6,1.4,1.1,1.8,1.4s0.7,0.7,0.9,1.1c0.2,0.4,0.4,0.9,0.4,1.4
		c0,0.9-0.3,1.6-0.9,2.1c-0.6,0.6-1.4,1-2.3,1.3c-1,0.3-2,0.4-3,0.4c-0.8,0-1.4-0.1-2-0.2c-0.5-0.2-1.1-0.4-1.6-0.7
		c-0.4-0.2-0.7-0.4-0.9-0.4c-0.2,0-0.3,0.1-0.4,0.2c-0.1,0.2-0.3,0.5-0.5,0.9h-0.4c0.2-0.5,0.5-1.2,0.7-2s0.5-1.8,0.8-3.2h0.4
		c-0.1,0.7-0.2,1.2-0.2,1.6c0,1,0.3,1.8,1,2.4c0.6,0.6,1.6,0.9,2.8,0.9c0.8,0,1.4-0.2,1.9-0.5s0.7-0.9,0.7-1.6
		c0-0.6-0.2-1.1-0.6-1.6s-1-1.1-1.9-1.8c-1-0.7-1.7-1.4-2.1-2s-0.7-1.2-0.7-2s0.3-1.5,0.8-2.1s1.2-1,2.1-1.3s1.8-0.4,2.8-0.4
		c0.7,0,1.3,0.1,1.8,0.2c0.5,0.2,0.9,0.3,1.3,0.6c0.5,0.3,0.8,0.5,1,0.5c0.1,0,0.2-0.1,0.3-0.3c0.1-0.2,0.2-0.5,0.4-0.9h0.4
		C104.1,9.1,103.7,10.6,103.3,12.2z"/>
	<path class="st2" d="M55.2,28.5h-0.9c0.2-1.2,0.3-2.2,0.3-3.1c0-1.2-0.2-2.2-0.7-3c-0.9-1.7-2.4-2.5-4.6-2.5
		c-2.1,0-4.1,0.9-5.9,2.7c-1.9,1.8-3.4,4.2-4.5,7.1s-1.7,5.9-1.7,9c0,2.6,0.5,4.5,1.4,5.8s2.2,1.9,3.9,1.9c1,0,2-0.2,3.1-0.7
		s2-1.1,2.8-1.9c0.7-0.7,1.3-1.5,1.8-2.4s1.1-2.1,1.7-3.7h0.9c-1.2,4.5-2,7.6-2.3,9.3h-0.9c0.1-0.5,0.1-1,0.1-1.3c0-0.7-0.2-1-0.5-1
		c-0.2,0-0.5,0.1-0.8,0.3c-1.2,0.8-2.4,1.4-3.6,1.9c-1.2,0.4-2.5,0.7-4,0.7c-3.5,0-6.1-0.8-7.8-2.5s-2.6-4-2.6-7.2
		c0-3.1,0.8-6.1,2.4-9c1.6-2.9,3.9-5.3,6.7-7.2c2.9-1.9,6-2.8,9.5-2.8c1.5,0,2.6,0.2,3.4,0.7c0.8,0.4,1.6,1.1,2.4,1.9
		c0.2,0.2,0.4,0.4,0.6,0.4c0.5,0,1-0.8,1.6-2.3h0.8C56.9,21.8,56,24.8,55.2,28.5z"/>
	<path class="st2" d="M59.9,45.3c-2-1.6-3-3.9-3-7c0-2.4,0.7-4.7,2.2-7.1c1.4-2.4,3.4-4.4,6-5.9c2.6-1.6,5.5-2.3,8.7-2.3
		c3.3,0,6,0.8,8,2.4s3,3.9,3,7c0,2.4-0.7,4.7-2.2,7.1c-1.4,2.4-3.4,4.4-6,5.9c-2.6,1.6-5.5,2.3-8.7,2.3
		C64.6,47.6,61.9,46.8,59.9,45.3z M68.5,25.8c-1.5,1.5-2.7,3.4-3.5,5.7c-0.9,2.3-1.3,4.8-1.3,7.3c0,2.8,0.4,4.9,1.2,6.2
		c0.8,1.3,1.9,2,3.4,2c1.8,0,3.5-0.7,5-2.2s2.7-3.4,3.5-5.7c0.9-2.3,1.3-4.8,1.3-7.3c0-2.8-0.4-4.9-1.2-6.2c-0.8-1.3-1.9-2-3.4-2
		C71.7,23.6,70,24.3,68.5,25.8z"/>
	<path class="st2" d="M120.1,22.6c0.6,0.6,1,1.4,1,2.4s-0.3,1.9-1,2.5c-0.7,0.7-1.5,1-2.5,1c-0.8,0-1.5-0.2-1.9-0.6
		c-0.5-0.4-0.7-1-0.7-1.7c0-0.9,0.3-1.6,0.8-2.3c0.6-0.7,1.3-1.1,2.1-1.3c-0.1-0.1-0.3-0.2-0.6-0.2c-0.7,0-1.3,0.2-1.8,0.5
		c-0.5,0.4-1,0.9-1.5,1.5c-1.1,1.6-2.4,4.3-3.6,8c-1.3,3.7-2.7,8.6-4.2,14.8h-0.9L95.1,28.1c-2.6,10.9-4.7,17.4-6.3,19.4
		c-0.6,0.8-1.3,1.4-1.9,1.8s-1.4,0.6-2.3,0.6c-1.2,0-2.1-0.3-2.7-0.9s-1-1.4-1-2.4s0.3-1.9,1-2.5c0.7-0.7,1.5-1,2.5-1
		c0.9,0,1.5,0.2,2,0.6s0.7,1,0.7,1.7c0,0.9-0.3,1.6-0.8,2.3c-0.5,0.6-1.2,1.1-2.1,1.4c0.1,0.1,0.3,0.2,0.6,0.2
		c1.3,0,2.4-0.7,3.3-2.1c1-1.5,2-4,3.1-7.5c1.1-3.6,2.3-8.1,3.5-13.6c0-0.5,0-0.9-0.2-1.1s-0.5-0.4-0.9-0.5s-1.1-0.1-1.9-0.2
		l0.2-0.8c0.8,0.1,2,0.1,3.5,0.1c1.6,0,3.1,0,4.3-0.1l7.7,15.4c2.2-7.6,4.1-12.5,5.7-14.7c1.2-1.7,2.6-2.5,4.2-2.5
		C118.5,21.7,119.4,22,120.1,22.6z"/>
	<path class="st2" d="M126.4,44.9c0,0.5,0.2,0.9,0.6,1.1s1.1,0.3,2.1,0.3l-0.2,0.8c-1.5-0.1-3.6-0.1-6.3-0.1c-2.7,0-4.8,0-6.1,0.1
		l0.2-0.8c0.9-0.1,1.6-0.2,2-0.3c0.5-0.2,0.8-0.5,1.1-0.9c0.3-0.5,0.5-1.2,0.8-2.1l4.1-15.4c0.2-0.9,0.3-1.5,0.3-1.9
		c0-0.6-0.2-0.9-0.6-1.1s-1.1-0.3-2-0.3l0.2-0.8c1.3,0.1,3.3,0.1,6.1,0.1c2.6,0,4.7,0,6.4-0.1l-0.2,0.8c-1,0.1-1.7,0.2-2.1,0.3
		c-0.5,0.2-0.8,0.5-1.1,0.9s-0.5,1.2-0.8,2.1L126.7,43C126.5,44,126.4,44.6,126.4,44.9z"/>
	<path class="st2" d="M163.9,18.4c0.5,0.5,0.8,1.2,0.8,1.9c0,1.4-0.7,2.6-2.2,3.5s-3.7,1.3-6.5,1.3c-0.4,0-1.1,0-2.1-0.1l-5,17.5
		c-0.2,0.8-0.4,1.4-0.4,1.9c0,0.6,0.2,1.1,0.7,1.4s1.3,0.4,2.5,0.5l-0.2,0.8c-1.7-0.1-4.1-0.1-7.2-0.1c-3.1,0-5.4,0-6.8,0.1l0.2-0.8
		c1.1-0.1,2-0.2,2.6-0.4c0.6-0.2,1.1-0.6,1.4-1.1c0.3-0.5,0.7-1.3,1-2.3l5.2-18.2c-2-0.2-3.5-0.3-4.6-0.3c-1.9,0-3.3,0.3-4.2,0.9
		c0.7,0.2,1.3,0.6,1.7,1.1c0.5,0.6,0.7,1.2,0.7,2c0,0.9-0.3,1.7-0.9,2.3c-0.6,0.6-1.3,1-2.2,1s-1.5-0.3-2-0.9s-0.8-1.3-0.8-2.1
		c0-0.7,0.2-1.4,0.6-2.1c0.4-0.7,1-1.3,1.9-1.8c1.3-0.7,3-1.1,5.1-1.1c1.5,0,3.7,0.2,6.7,0.5c1.1,0.1,2.2,0.3,3.3,0.4s2.1,0.2,3,0.2
		c1.7,0,3-0.2,4-0.6c-0.4-0.3-0.8-0.8-1.1-1.3s-0.4-1.1-0.4-1.8c0-0.9,0.3-1.6,0.8-2.2s1.3-0.9,2.3-0.9
		C162.7,17.6,163.4,17.9,163.9,18.4z"/>
	<path class="st2" d="M210.8,31.1H210c0.2-0.8,0.2-1.5,0.2-2.2c0-1.5-0.5-2.8-1.6-3.8s-2.5-1.5-4.3-1.5c-1.5,0-2.6,0.3-3.5,1
		c-0.9,0.6-1.3,1.5-1.3,2.6s0.3,2,1,2.9c0.7,0.8,2,2,3.8,3.5c1.4,1.1,2.5,2,3.2,2.6s1.2,1.3,1.7,2.1c0.4,0.8,0.6,1.6,0.6,2.5
		c0,1.5-0.5,2.8-1.6,3.8s-2.5,1.8-4.2,2.3s-3.5,0.7-5.5,0.7c-1.4,0-2.6-0.1-3.5-0.4s-1.9-0.7-3-1.3c-0.7-0.4-1.2-0.7-1.6-0.7
		c-0.3,0-0.6,0.1-0.8,0.4s-0.5,0.8-0.8,1.7H188c0.4-1,0.8-2.2,1.2-3.6s0.9-3.3,1.4-5.8h0.8c-0.2,1.2-0.3,2.2-0.3,2.9
		c0,1.8,0.6,3.3,1.7,4.3c1.1,1,2.8,1.6,5.1,1.6c1.4,0,2.6-0.3,3.5-0.9s1.3-1.5,1.3-2.8c0-1.1-0.3-2-1-3c-0.7-0.9-1.8-2-3.4-3.2
		c-1.7-1.3-3-2.5-3.8-3.6c-0.8-1-1.2-2.2-1.2-3.6c0-1.5,0.5-2.8,1.4-3.8c1-1,2.2-1.8,3.8-2.3s3.2-0.8,5-0.8c1.3,0,2.4,0.1,3.2,0.4
		s1.6,0.6,2.4,1.1c0.9,0.6,1.4,0.9,1.7,0.9c0.2,0,0.4-0.2,0.6-0.5c0.2-0.3,0.4-0.8,0.7-1.6h0.8C212.1,25.5,211.3,28.2,210.8,31.1z"
		/>
</g>
</svg>
