<?xml version="1.0" encoding="utf-8"?>
<!-- Generator: Adobe Illustrator 27.0.0, SVG Export Plug-In . SVG Version: 6.00 Build 0)  -->
<svg version="1.1" id="Icons" xmlns="http://www.w3.org/2000/svg" xmlns:xlink="http://www.w3.org/1999/xlink" x="0px" y="0px"
	 viewBox="0 0 35.4 32" style="enable-background:new 0 0 35.4 32;" xml:space="preserve">
<style type="text/css">
	.st0{fill:#FDF6DB;}
</style>
<g>
	<path class="st0" d="M34.2,13.9h-6.8c-2.3,0-4.1-2.1-4.1-4.6c0-0.4,0-1-1.4-1h-8.4c-1.4,0-1.4,0.6-1.4,1c0,2.5-1.8,4.6-4.1,4.6H1.3
		c-0.8,0-1.3-0.6-1.3-1.4C0,5.6,4.9,0,10.9,0h13.7c5.9,0,10.9,5.6,10.9,12.5C35.4,13.4,34.9,13.9,34.2,13.9z"/>
</g>
<path class="st0" d="M27.3,16.7c-3,0-5.7-2.4-6.5-5.6h-6.6c-0.8,3.2-3.3,5.6-6.5,5.6H6.6C5.2,20,3.8,24.2,3.8,27.8
	c0,0.8,0.5,1.4,1.3,1.4h25.3c0.8,0,1.3-0.6,1.3-1.4c0-3.6-1.4-7.8-2.9-11.1H27.3z M17.7,25c-2.8,0-5.1-2.5-5.1-5.6s2.3-5.6,5.1-5.6
	s5.1,2.5,5.1,5.6S20.5,25,17.7,25z"/>
<path class="st0" d="M26.6,32c-0.8,0-1.3-0.6-1.3-1.4v-2.8c0-0.8,0.5-1.4,1.3-1.4s1.3,0.6,1.3,1.4v2.8C27.8,31.4,27.3,32,26.6,32z"
	/>
<path class="st0" d="M8.9,32c-0.8,0-1.3-0.6-1.3-1.4v-2.8c0-0.8,0.5-1.4,1.3-1.4s1.3,0.6,1.3,1.4v2.8C10.1,31.4,9.6,32,8.9,32z"/>
</svg>
